<svg width="176" height="51" viewBox="0 0 176 51" fill="none" xmlns="http://www.w3.org/2000/svg">
<path d="M25.71 0.418038C22.3921 0.415402 19.1062 1.06207 16.0398 2.32113C12.9734 3.58019 10.1867 5.42699 7.83868 7.75606C5.49069 10.0851 3.62737 12.8509 2.35521 15.8954C1.08305 18.9399 0.426968 22.2036 0.424316 25.5C0.426968 28.7965 1.08305 32.0601 2.35521 35.1046C3.62737 38.1491 5.49069 40.9149 7.83868 43.2439C10.1867 45.573 12.9734 47.4198 16.0398 48.6789C19.1062 49.9379 22.3921 50.5846 25.71 50.582C29.0279 50.5846 32.3138 49.9379 35.3801 48.6789C38.4465 47.4198 41.2333 45.573 43.5813 43.2439C45.9292 40.9149 47.7926 38.1491 49.0647 35.1046C50.3369 32.0601 50.993 28.7965 50.9956 25.5C50.993 22.2036 50.3369 18.9399 49.0647 15.8954C47.7926 12.8509 45.9292 10.0851 43.5813 7.75606C41.2333 5.42699 38.4465 3.58019 35.3801 2.32113C32.3138 1.06207 29.0279 0.415402 25.71 0.418038ZM41.9923 41.6511C40.3395 43.223 38.5169 44.6086 36.5579 45.783C34.8942 46.8205 31.6333 48.5261 29.5733 47.8673C28.1856 47.4241 27.4889 45.4468 27.1902 44.1769C26.661 41.4849 26.4382 38.7424 26.5262 36.001C26.5262 34.3213 26.5936 32.6475 26.6946 30.9762C27.8423 31.0928 29.0017 30.9468 30.0839 30.5496C31.1662 30.1524 32.1426 29.5145 32.9385 28.6846C33.7363 27.8134 32.4337 26.5158 31.6342 27.3903C31.0208 28.033 30.2664 28.5264 29.4299 28.8324C28.5933 29.1383 27.697 29.2486 26.8106 29.1545C26.989 26.5426 27.2003 23.9332 27.2844 21.3138C27.3475 19.3465 24.2735 19.3524 24.2112 21.3138C24.1473 23.3028 24.0151 25.286 23.8796 27.2675C22.237 27.4514 20.7586 25.939 19.6562 24.7066C18.8652 23.8229 17.5658 25.1246 18.3526 26C19.7832 27.6027 21.6952 29.162 23.7535 29.1252C23.5776 31.7613 23.4311 34.3991 23.4631 37.0528C23.3981 40.0261 23.735 42.9947 24.4646 45.8791C24.7089 46.7531 25.0903 47.5835 25.5947 48.3396C19.5269 48.3271 13.7124 45.9213 9.42925 41.6511C7.28491 39.5366 5.58453 37.0201 4.42672 34.2476C3.26892 31.475 2.67673 28.5017 2.68454 25.5C2.67677 22.4983 3.26903 19.525 4.42683 16.7525C5.58463 13.98 7.28495 11.4635 9.42925 9.3489C11.5642 7.22092 14.1022 5.53424 16.8969 4.38624C19.6916 3.23823 22.6875 2.65165 25.7116 2.66037C28.7357 2.6516 31.7317 3.23818 34.5264 4.38619C37.3211 5.53419 39.8591 7.22089 41.994 9.3489C44.1383 11.4635 45.8387 13.98 46.9965 16.7525C48.1543 19.525 48.7464 22.4983 48.7387 25.5C48.7459 28.502 48.1529 31.4756 46.9942 34.2482C45.8356 37.0207 44.1342 39.537 41.9889 41.6511H41.9923Z" fill="url(#paint0_linear_121_63)"/>
<path d="M25.9597 9.29785C20.8122 13.4782 25.4918 17.6661 25.4918 17.6661L25.9125 13.9874L26.4258 17.6661C30.7756 12.9933 25.9597 9.29785 25.9597 9.29785Z" fill="url(#paint1_linear_121_63)"/>
<path d="M18.1068 10.0069C15.4981 14.4974 20.0994 16.2774 20.0994 16.2774L19.3825 13.4599L20.7861 16.0199C22.6744 11.3931 18.1068 10.0069 18.1068 10.0069Z" fill="url(#paint2_linear_121_63)"/>
<path d="M33.6716 10.0069C33.6716 10.0069 29.1038 11.3931 30.9922 16.0224L32.3958 13.4624L31.6789 16.2799C31.6789 16.2799 36.2828 14.4974 33.6716 10.0069Z" fill="url(#paint3_linear_121_63)"/>
<path d="M38.5952 23.5503L40.7418 22.9584L38.8165 24.0586C39.2525 24.2767 39.7338 24.3906 40.2219 24.3913C40.7101 24.3919 41.1917 24.2792 41.6283 24.0622C42.0649 23.8453 42.4445 23.53 42.7368 23.1415C43.0291 22.753 43.226 22.3021 43.3119 21.8247C42.8969 21.5844 42.4337 21.4381 41.9553 21.3965C41.4769 21.3548 40.9951 21.4187 40.5444 21.5836C40.0937 21.7485 39.6852 22.0103 39.3483 22.3503C39.0113 22.6903 38.7542 23.1001 38.5952 23.5503Z" fill="url(#paint4_linear_121_63)"/>
<path d="M12.4975 24.0595L10.5721 22.9592L12.7188 23.5512C12.5598 23.1014 12.3029 22.6921 11.9662 22.3524C11.6296 22.0128 11.2215 21.7512 10.7714 21.5863C10.3212 21.4215 9.83997 21.3575 9.36199 21.3988C8.88401 21.4401 8.42108 21.5858 8.00635 21.8255C8.09241 22.3024 8.28928 22.7528 8.58129 23.1408C8.8733 23.5288 9.25239 23.8438 9.68844 24.0607C10.1245 24.2776 10.6054 24.3904 11.0931 24.3902C11.5807 24.39 12.0617 24.2767 12.4975 24.0595Z" fill="url(#paint5_linear_121_63)"/>
<path d="M33.2522 30.9537L34.2309 32.8549L32.8112 31.2605C32.6894 31.7122 32.6752 32.186 32.7697 32.6441C32.8643 33.1023 33.0649 33.5322 33.3558 33.8999C33.6467 34.2675 34.0199 34.5628 34.4457 34.7622C34.8715 34.9616 35.3381 35.0597 35.8087 35.0487C35.9569 34.6125 36.0062 34.149 35.9531 33.6916C35.9 33.2342 35.7458 32.7941 35.5016 32.4028C35.2573 32.0115 34.9289 31.6787 34.5401 31.4281C34.1512 31.1776 33.7115 31.0156 33.2522 30.9537Z" fill="url(#paint6_linear_121_63)"/>
<path d="M16.9179 35.0203C17.3881 35.0413 17.8567 34.9533 18.2866 34.7631C18.7165 34.5729 19.096 34.2858 19.3948 33.9246C19.6936 33.5633 19.9036 33.1379 20.0082 32.682C20.1127 32.2261 20.1089 31.7523 19.9971 31.2981L18.5421 32.8615L19.5628 30.9821C19.1024 31.034 18.6592 31.1865 18.265 31.4285C17.8709 31.6705 17.5354 31.9961 17.2827 32.382C17.03 32.7679 16.8662 33.2045 16.8032 33.6606C16.7401 34.1167 16.7793 34.581 16.9179 35.0203Z" fill="url(#paint7_linear_121_63)"/>
<path d="M36.1144 19.0314L34.0106 22.6265C41.0961 21.4919 39.419 14.9263 39.419 14.9263C31.97 15.0809 33.186 21.9835 33.186 21.9835L36.1144 19.0314Z" fill="url(#paint8_linear_121_63)"/>
<path d="M35.8789 29.0491L39.4629 28.866L36.027 29.932C41.1813 33.2971 43.9532 28.1679 43.9532 28.1679C39.1397 23.9725 35.8789 29.0491 35.8789 29.0491Z" fill="url(#paint9_linear_121_63)"/>
<path d="M7.46094 28.1679C7.46094 28.1679 10.232 33.2971 15.3862 29.932L11.9504 28.866L15.5344 29.0491C15.5344 29.0491 12.2744 23.9725 7.46094 28.1679Z" fill="url(#paint10_linear_121_63)"/>
<path d="M12.4396 15.0392C12.4396 15.0392 10.7633 21.6048 17.8479 22.7393L15.7442 19.1442L18.676 22.0981C18.676 22.0981 19.8894 15.1947 12.4396 15.0392Z" fill="url(#paint11_linear_121_63)"/>
<path d="M80.6203 15.3444C80.7962 15.1688 81.0722 15.1136 81.0722 14.8695V13.3185C81.0054 13.0317 80.8468 12.7742 80.6203 12.5845C80.3864 12.3813 80.094 12.2564 79.7847 12.2275H65.1071C64.8387 12.2586 64.5906 12.3844 64.4078 12.582C64.2177 12.7823 64.1048 13.0428 64.0889 13.3177V14.8686C64.0889 15.1127 64.2311 15.168 64.4095 15.346C64.5879 15.5241 64.8631 15.4405 65.1079 15.4405H70.5592V30.6979C70.5578 30.81 70.5805 30.9212 70.626 31.0239C70.6714 31.1265 70.7384 31.2184 70.8226 31.2931C70.9094 31.372 71.0118 31.4321 71.1232 31.4696C71.2345 31.5072 71.3526 31.5214 71.4697 31.5113H73.4246C73.7017 31.5317 73.9772 31.4554 74.2038 31.2956C74.3813 31.1201 74.6043 30.9428 74.6043 30.6979V15.4413H79.7864C80.0304 15.4413 80.4427 15.5208 80.6203 15.3444Z" fill="#078BFB"/>
<path d="M87.0765 20.4611C86.056 19.9133 84.9124 19.6317 83.7525 19.6426C82.5932 19.6281 81.45 19.9127 80.4345 20.4686C79.448 20.9959 78.621 21.7752 78.0387 22.726C77.4621 23.6629 77.1589 24.7405 77.1627 25.8386C77.1569 26.9414 77.4655 28.0232 78.053 28.9588C78.6381 29.9191 79.4703 30.707 80.4639 31.2413C81.4717 31.7897 82.6035 32.0739 83.7525 32.0673C84.9153 32.0786 86.0609 31.7878 87.0756 31.2237C88.0592 30.6865 88.8852 29.9042 89.4723 28.9538C90.0544 28.0179 90.3611 26.9388 90.3575 25.8386C90.3605 24.7368 90.0564 23.6557 89.479 22.7151C88.8926 21.7661 88.0636 20.9884 87.0765 20.4611ZM83.7525 28.9638C83.2054 28.9748 82.6657 28.8363 82.1924 28.5634C81.7469 28.3139 81.3834 27.942 81.1455 27.4924C80.8772 26.9842 80.7434 26.4165 80.7568 25.8428C80.7438 25.2667 80.8809 24.697 81.1548 24.1891C81.3868 23.7433 81.7464 23.3757 82.1882 23.1323C82.6717 22.8701 83.2161 22.7387 83.7668 22.7511C84.3122 22.7398 84.8507 22.8731 85.327 23.1373C85.7701 23.3849 86.1307 23.7557 86.3646 24.2041C86.6266 24.7108 86.7581 25.2741 86.7474 25.8436C86.7569 26.407 86.626 26.9639 86.3663 27.4648C86.1239 27.9249 85.7558 28.3077 85.3043 28.5692C84.8332 28.8389 84.2969 28.9756 83.7534 28.9647L83.7525 28.9638Z" fill="#078BFB"/>
<path d="M103.313 28.8718V13.0284C103.274 12.728 103.137 12.4484 102.924 12.2317C102.713 12.0149 102.437 11.8727 102.137 11.827H102.093C102.056 11.827 101.329 11.8212 101.292 11.827H100.888C100.567 11.8279 100.259 11.9552 100.031 12.1811C99.804 12.4071 99.6761 12.7132 99.6754 13.0326V20.4936C99.6754 20.3624 99.1503 20.2487 98.9257 20.1517C97.6902 19.6327 96.3137 19.5472 95.0227 19.9092C94.5147 20.0446 94.0278 20.2492 93.5761 20.5171C92.6813 21.062 91.9497 21.8351 91.4573 22.756C90.9507 23.7065 90.6904 24.7673 90.6999 25.8428C90.6631 27.44 91.2489 28.9896 92.3349 30.1678C92.8472 30.7478 93.4766 31.2144 94.182 31.5373C94.896 31.857 95.671 32.0195 96.4541 32.0138C97.2967 32.0166 98.1297 31.8359 98.8945 31.4845C99.2934 31.302 99.668 31.0709 100.009 30.7965C100.27 31.1565 100.618 31.445 101.021 31.635C101.425 31.8251 101.87 31.9105 102.315 31.8833C103.014 31.8729 103.69 31.636 104.241 31.2087C104.269 31.1878 104.26 31.1643 104.285 31.1401C104.37 31.0562 104.435 30.9554 104.477 30.8444C104.52 30.7334 104.538 30.6147 104.53 30.4963V30.0081C104.533 29.8843 104.51 29.7613 104.464 29.6464C104.418 29.5314 104.349 29.427 104.261 29.3392C104.162 29.2391 104.041 29.1646 103.906 29.1223C103.772 29.08 103.629 29.0712 103.491 29.0968C103.462 29.1002 103.433 29.0962 103.406 29.0852C103.38 29.0742 103.356 29.0565 103.338 29.0339C103.32 29.0113 103.309 28.9845 103.304 28.9561C103.3 28.9278 103.303 28.8987 103.313 28.8718ZM99.6746 27.4506C99.3462 27.9159 98.9084 28.2943 98.3991 28.5531C97.8899 28.8119 97.3248 28.9432 96.7529 28.9354C96.3176 28.9437 95.8894 28.8254 95.5209 28.5951C95.1384 28.3533 94.8367 28.0041 94.6541 27.5918C94.4179 27.0508 94.3009 26.4659 94.3108 25.8762C94.2935 25.2828 94.4084 24.693 94.6474 24.1489C94.8288 23.7351 95.1229 23.3798 95.4965 23.1231C95.8453 22.8934 96.2562 22.775 96.6746 22.7836C97.3242 22.7694 97.9666 22.9211 98.5402 23.2242C98.993 23.4867 99.6822 23.8095 99.6822 24.2191L99.6746 27.4506Z" fill="#078BFB"/>
<path d="M114.841 20.4611C113.821 19.9133 112.677 19.6317 111.517 19.6425C110.358 19.6282 109.215 19.9128 108.199 20.4686C107.213 20.9959 106.386 21.7752 105.803 22.7259C105.227 23.6628 104.923 24.7405 104.927 25.8386C104.922 26.9415 105.231 28.0234 105.818 28.9588C106.404 29.9191 107.236 30.707 108.229 31.2413C109.237 31.7897 110.369 32.0739 111.518 32.0673C112.681 32.0786 113.826 31.7878 114.841 31.2237C115.825 30.6865 116.651 29.9042 117.238 28.9538C117.82 28.0179 118.127 26.9388 118.123 25.8386C118.126 24.7369 117.822 23.6557 117.244 22.7151C116.658 21.766 115.829 20.9883 114.841 20.4611ZM111.517 28.9638C110.97 28.9747 110.43 28.8362 109.957 28.5634C109.512 28.3138 109.148 27.9419 108.91 27.4923C108.642 26.9841 108.509 26.4165 108.522 25.8428C108.509 25.2667 108.646 24.6969 108.92 24.1891C109.152 23.7432 109.512 23.3756 109.954 23.1323C110.437 22.8702 110.982 22.7387 111.532 22.7511C112.078 22.7398 112.616 22.8731 113.092 23.1373C113.536 23.3849 113.896 23.7557 114.13 24.2041C114.392 24.7108 114.524 25.2741 114.513 25.8436C114.522 26.407 114.391 26.9639 114.132 27.4648C113.889 27.9249 113.521 28.3077 113.07 28.5692C112.598 28.8392 112.061 28.9759 111.517 28.9646V28.9638Z" fill="#078BFB"/>
<path d="M129.09 21.1023C128.03 20.4947 126.889 20.0397 125.7 19.7512C122.62 18.9862 122.62 17.7539 122.62 17.3484C122.613 16.9781 122.719 16.6144 122.924 16.3049C123.132 16.0013 123.424 15.7646 123.765 15.6236C124.202 15.4398 124.672 15.3495 125.146 15.3585C126.549 15.3607 127.918 15.7912 129.066 16.5917C129.233 16.7078 129.433 16.7684 129.637 16.7648C129.85 16.7667 130.057 16.6968 130.226 16.5666C130.397 16.4344 130.516 16.2464 130.562 16.0357L130.97 14.591C131.009 14.4339 131.005 14.2693 130.96 14.1138C130.915 13.9584 130.829 13.8176 130.711 13.7056C130.687 13.6816 130.661 13.6593 130.634 13.6387C129.918 13.1234 129.122 12.728 128.278 12.4682C127.361 12.1714 126.403 12.0201 125.439 12.0201C124.293 12.0001 123.155 12.2254 122.104 12.6806C121.171 13.0918 120.371 13.752 119.793 14.5877C119.245 15.4038 118.956 16.3653 118.966 17.3467C118.966 20.2537 120.802 22.2235 124.421 23.1991C125.263 23.4057 126.082 23.7008 126.861 24.0795C127.278 24.2821 127.633 24.5905 127.89 24.9733C128.101 25.3631 128.203 25.8019 128.185 26.2441C128.196 26.6881 128.072 27.1251 127.83 27.4982C127.563 27.8748 127.196 28.1704 126.77 28.3518C126.253 28.5737 125.694 28.6832 125.13 28.6729C124.281 28.6764 123.44 28.5132 122.654 28.1927C121.869 27.8721 121.155 27.4006 120.553 26.8051C120.46 26.7087 120.349 26.6318 120.225 26.5791C120.101 26.5264 119.968 26.4989 119.834 26.4982C119.611 26.494 119.393 26.569 119.221 26.7097C119.049 26.8503 118.932 27.0475 118.893 27.2658L118.502 28.8635C118.497 28.8861 118.492 28.9086 118.488 28.9304C118.469 29.0565 118.476 29.1852 118.509 29.3084C118.543 29.4316 118.601 29.5466 118.682 29.646C118.695 29.6628 118.71 29.6786 118.724 29.6945C119.012 29.9956 119.335 30.2617 119.687 30.4871C121.315 31.5291 123.22 32.0604 125.156 32.0121C126.315 32.0254 127.462 31.7788 128.512 31.2906C129.509 30.8288 130.354 30.0978 130.953 29.1812C131.552 28.2445 131.863 27.1541 131.846 26.0443C131.868 25.0407 131.631 24.0482 131.157 23.1615C130.657 22.3104 129.946 21.6013 129.09 21.1023Z" fill="#078BFB"/>
<path d="M149.621 19.7002C148.733 19.7436 147.869 19.9998 147.103 20.4468C146.856 20.5887 146.621 20.7489 146.399 20.9258L146.379 20.7294C146.364 20.4977 146.263 20.28 146.094 20.119C145.926 19.9579 145.703 19.8652 145.47 19.859H145.411C145.368 19.859 145.327 19.9201 145.281 19.9284L143.857 20.2202C143.654 20.2603 143.593 20.3782 143.457 20.5337C143.32 20.6892 143.347 20.9259 143.347 21.1449V30.6969C143.347 30.9419 143.326 31.115 143.502 31.2931C143.567 31.3697 143.65 31.4295 143.744 31.4673C143.837 31.5052 143.939 31.52 144.039 31.5105H145.79C146.07 31.5306 146.348 31.4545 146.577 31.2948C146.755 31.1192 146.986 30.9419 146.986 30.6969V25.0293C146.932 24.7158 146.999 24.3936 147.174 24.1272C147.385 23.8445 147.668 23.6224 147.993 23.4834C148.349 23.3263 148.731 23.2393 149.12 23.2275C149.261 23.228 149.402 23.2406 149.541 23.2652C149.672 23.2846 149.806 23.2764 149.933 23.2413C150.061 23.2062 150.18 23.1448 150.282 23.0612C150.391 22.9736 150.479 22.8627 150.539 22.7368C150.599 22.6108 150.629 22.4731 150.628 22.3338V20.6374C150.627 20.5127 150.601 20.3894 150.552 20.2746C150.502 20.1598 150.431 20.0559 150.341 19.9686C150.246 19.8772 150.133 19.8061 150.009 19.76C149.885 19.7138 149.753 19.6934 149.621 19.7002Z" fill="#078BFB"/>
<path d="M162.626 19.8616H160.992C160.802 19.8796 160.621 19.952 160.472 20.07C160.323 20.188 160.211 20.3464 160.15 20.5262L157.637 26.5459L155.112 20.5212C155.052 20.3393 154.938 20.1793 154.786 20.0618C154.634 19.9443 154.45 19.8746 154.257 19.8616H152.638C152.366 19.9028 152.119 20.0435 151.946 20.2562C151.764 20.4567 151.664 20.7171 151.665 20.9869C151.664 21.0544 151.671 21.1216 151.686 21.1876L151.715 21.318C151.725 21.3597 151.739 21.4006 151.755 21.4401L156.088 31.1385C156.16 31.3692 156.308 31.569 156.509 31.7053C156.647 31.7747 156.794 31.9135 156.944 31.9135H158.33C158.48 31.9135 158.626 31.7764 158.764 31.707C158.962 31.5915 159.111 31.4093 159.185 31.1936L163.519 21.4719C163.536 21.4304 163.549 21.3876 163.558 21.3439L163.588 21.2219C163.602 21.1647 163.609 21.106 163.609 21.0471C163.61 20.759 163.51 20.4794 163.327 20.2562C163.152 20.0418 162.901 19.9009 162.626 19.8616Z" fill="#078BFB"/>
<path d="M175.719 20.2554C175.546 20.0433 175.299 19.9029 175.028 19.8616H173.393C173.204 19.8797 173.023 19.9522 172.874 20.0701C172.724 20.1881 172.613 20.3465 172.552 20.5262L170.038 26.5459L167.505 20.5045C167.442 20.3269 167.328 20.1715 167.178 20.0574C167.027 19.9433 166.846 19.8755 166.657 19.8624H165.052C164.791 19.9042 164.553 20.0359 164.379 20.2344C164.28 20.3334 164.202 20.4508 164.148 20.5799C164.095 20.709 164.067 20.8473 164.068 20.9869C164.068 21.0541 164.075 21.1211 164.089 21.1868L164.118 21.3172C164.129 21.3592 164.142 21.4002 164.159 21.4401L168.189 30.4345L164.844 37.9783C164.827 38.0149 164.814 38.053 164.804 38.092L164.775 38.209C164.761 38.2654 164.754 38.3232 164.754 38.3813C164.752 38.666 164.852 38.9421 165.035 39.1613C165.209 39.3717 165.456 39.5096 165.727 39.5476H167.376C167.526 39.5476 167.671 39.4063 167.812 39.3369C168.01 39.2205 168.159 39.0371 168.232 38.8202L175.922 21.4727C175.939 21.4314 175.952 21.3889 175.962 21.3456L175.991 21.2235C176.005 21.1469 176.012 21.0691 176.012 20.9911C176.01 20.7181 175.905 20.4557 175.719 20.2554Z" fill="#078BFB"/>
<path d="M142.364 24.7785C142.522 24.7057 142.659 24.5931 142.76 24.4517C142.861 24.3104 142.924 24.1452 142.941 23.9725V23.9433C142.941 23.9098 142.857 23.8763 142.857 23.8429C142.797 23.4874 142.699 23.1393 142.565 22.8046C142.23 21.8789 141.602 21.0866 140.774 20.5472C139.938 19.9985 138.956 19.7122 137.954 19.7253C137.269 19.7231 136.59 19.8461 135.95 20.0882C134.835 20.4823 133.872 21.2132 133.196 22.1783C132.526 23.1411 132.173 24.2868 132.186 25.4574C132.194 26.2627 132.341 27.0607 132.623 27.8159C132.872 28.5808 133.269 29.2895 133.794 29.9017C134.318 30.5138 134.958 31.0173 135.679 31.3834C136.456 31.7627 137.311 31.9603 138.177 31.9611C138.919 31.9585 139.656 31.8328 140.357 31.5891C141.053 31.3516 141.713 31.0196 142.318 30.6025C142.353 30.5783 142.51 30.5524 142.539 30.5189C142.751 30.3555 142.895 30.1213 142.945 29.8601V28.6135C142.904 28.3382 142.764 28.0866 142.552 27.9045C142.362 27.7236 142.113 27.6153 141.851 27.5986C141.588 27.5819 141.328 27.658 141.116 27.8134C140.724 28.0912 140.294 28.313 139.84 28.4722C139.344 28.6645 138.809 28.7364 138.28 28.6821C137.792 28.6464 137.326 28.4698 136.939 28.1742C136.551 27.8786 136.259 27.4768 136.099 27.0183L142.23 24.8128C142.275 24.8039 142.32 24.7925 142.364 24.7785ZM135.623 24.5277C135.754 23.9787 136.014 23.4683 136.38 23.0378C137.596 21.7302 139.369 23.1214 139.369 23.1214L135.623 24.5277Z" fill="#078BFB"/>
<defs>
<linearGradient id="paint0_linear_121_63" x1="25.5077" y1="49.98" x2="25.9058" y2="-0.0836603" gradientUnits="userSpaceOnUse">
<stop stop-color="#0193FD"/>
<stop offset="0.156" stop-color="#0198F6"/>
<stop offset="0.372" stop-color="#04A8E4"/>
<stop offset="0.621" stop-color="#07C3C7"/>
<stop offset="0.643" stop-color="#08C6C5"/>
<stop offset="0.885" stop-color="#06E5C4"/>
<stop offset="1" stop-color="#06F6C4"/>
</linearGradient>
<linearGradient id="paint1_linear_121_63" x1="25.8758" y1="17.5656" x2="25.9949" y2="9.21533" gradientUnits="userSpaceOnUse">
<stop stop-color="#0193FD"/>
<stop offset="0.156" stop-color="#0198F6"/>
<stop offset="0.372" stop-color="#04A8E4"/>
<stop offset="0.621" stop-color="#07C3C7"/>
<stop offset="0.643" stop-color="#08C6C5"/>
<stop offset="0.885" stop-color="#06E5C4"/>
<stop offset="1" stop-color="#06F6C4"/>
</linearGradient>
<linearGradient id="paint2_linear_121_63" x1="19.2591" y1="16.2021" x2="19.339" y2="9.94481" gradientUnits="userSpaceOnUse">
<stop stop-color="#0193FD"/>
<stop offset="0.156" stop-color="#0198F6"/>
<stop offset="0.372" stop-color="#04A8E4"/>
<stop offset="0.621" stop-color="#07C3C7"/>
<stop offset="0.643" stop-color="#08C6C5"/>
<stop offset="0.885" stop-color="#06E5C4"/>
<stop offset="1" stop-color="#06F6C4"/>
</linearGradient>
<linearGradient id="paint3_linear_121_63" x1="32.4882" y1="16.2046" x2="32.5681" y2="9.94479" gradientUnits="userSpaceOnUse">
<stop stop-color="#0193FD"/>
<stop offset="0.156" stop-color="#0198F6"/>
<stop offset="0.372" stop-color="#04A8E4"/>
<stop offset="0.621" stop-color="#07C3C7"/>
<stop offset="0.643" stop-color="#08C6C5"/>
<stop offset="0.885" stop-color="#06E5C4"/>
<stop offset="1" stop-color="#06F6C4"/>
</linearGradient>
<linearGradient id="paint4_linear_121_63" x1="40.9347" y1="24.3552" x2="40.95" y2="21.3539" gradientUnits="userSpaceOnUse">
<stop stop-color="#0193FD"/>
<stop offset="0.156" stop-color="#0198F6"/>
<stop offset="0.372" stop-color="#04A8E4"/>
<stop offset="0.621" stop-color="#07C3C7"/>
<stop offset="0.643" stop-color="#08C6C5"/>
<stop offset="0.885" stop-color="#06E5C4"/>
<stop offset="1" stop-color="#06F6C4"/>
</linearGradient>
<linearGradient id="paint5_linear_121_63" x1="10.3437" y1="24.3541" x2="10.359" y2="21.3564" gradientUnits="userSpaceOnUse">
<stop stop-color="#0193FD"/>
<stop offset="0.156" stop-color="#0198F6"/>
<stop offset="0.372" stop-color="#04A8E4"/>
<stop offset="0.621" stop-color="#07C3C7"/>
<stop offset="0.643" stop-color="#08C6C5"/>
<stop offset="0.885" stop-color="#06E5C4"/>
<stop offset="1" stop-color="#06F6C4"/>
</linearGradient>
<linearGradient id="paint6_linear_121_63" x1="34.3279" y1="35.0004" x2="34.369" y2="30.9129" gradientUnits="userSpaceOnUse">
<stop stop-color="#0193FD"/>
<stop offset="0.156" stop-color="#0198F6"/>
<stop offset="0.372" stop-color="#04A8E4"/>
<stop offset="0.621" stop-color="#07C3C7"/>
<stop offset="0.643" stop-color="#08C6C5"/>
<stop offset="0.885" stop-color="#06E5C4"/>
<stop offset="1" stop-color="#06F6C4"/>
</linearGradient>
<linearGradient id="paint7_linear_121_63" x1="18.4156" y1="34.9748" x2="18.4551" y2="30.9418" gradientUnits="userSpaceOnUse">
<stop stop-color="#0193FD"/>
<stop offset="0.156" stop-color="#0198F6"/>
<stop offset="0.372" stop-color="#04A8E4"/>
<stop offset="0.621" stop-color="#07C3C7"/>
<stop offset="0.643" stop-color="#08C6C5"/>
<stop offset="0.885" stop-color="#06E5C4"/>
<stop offset="1" stop-color="#06F6C4"/>
</linearGradient>
<linearGradient id="paint8_linear_121_63" x1="36.3263" y1="22.534" x2="36.3995" y2="14.8495" gradientUnits="userSpaceOnUse">
<stop stop-color="#0193FD"/>
<stop offset="0.156" stop-color="#0198F6"/>
<stop offset="0.372" stop-color="#04A8E4"/>
<stop offset="0.621" stop-color="#07C3C7"/>
<stop offset="0.643" stop-color="#08C6C5"/>
<stop offset="0.885" stop-color="#06E5C4"/>
<stop offset="1" stop-color="#06F6C4"/>
</linearGradient>
<linearGradient id="paint9_linear_121_63" x1="39.8837" y1="31.0213" x2="39.9044" y2="26.4613" gradientUnits="userSpaceOnUse">
<stop stop-color="#0193FD"/>
<stop offset="0.156" stop-color="#0198F6"/>
<stop offset="0.372" stop-color="#04A8E4"/>
<stop offset="0.621" stop-color="#07C3C7"/>
<stop offset="0.643" stop-color="#08C6C5"/>
<stop offset="0.885" stop-color="#06E5C4"/>
<stop offset="1" stop-color="#06F6C4"/>
</linearGradient>
<linearGradient id="paint10_linear_121_63" x1="11.4654" y1="31.0213" x2="11.486" y2="26.4613" gradientUnits="userSpaceOnUse">
<stop stop-color="#0193FD"/>
<stop offset="0.156" stop-color="#0198F6"/>
<stop offset="0.372" stop-color="#04A8E4"/>
<stop offset="0.621" stop-color="#07C3C7"/>
<stop offset="0.643" stop-color="#08C6C5"/>
<stop offset="0.885" stop-color="#06E5C4"/>
<stop offset="1" stop-color="#06F6C4"/>
</linearGradient>
<linearGradient id="paint11_linear_121_63" x1="15.482" y1="22.6469" x2="15.5552" y2="14.9624" gradientUnits="userSpaceOnUse">
<stop stop-color="#0193FD"/>
<stop offset="0.156" stop-color="#0198F6"/>
<stop offset="0.372" stop-color="#04A8E4"/>
<stop offset="0.621" stop-color="#07C3C7"/>
<stop offset="0.643" stop-color="#08C6C5"/>
<stop offset="0.885" stop-color="#06E5C4"/>
<stop offset="1" stop-color="#06F6C4"/>
</linearGradient>
</defs>
</svg>
